# xmcd
#
# Track frame offsets:
#	150
#	17141
#	33344
#	46294
#	60189
#	74302
#	87484
#	101990
#	116694
#	131067
#	142720
#	158918
#
# Disc length: 2314 seconds
#
# Revision: 1
# Processed by: cddbd v1.5.2PL0 Copyright (c) Steve Scherf et al.
# Submitted via: audiograbber 1.83.01
#
DISCID=9f09080c
DTITLE=Sandra Humphries - Every Road
DYEAR=2005
DGENRE=Country
TTITLE0=Sandra Humphries - Cry Baby Cry
TTITLE1=Sandra Humphries - In The Bed You Made For me
TTITLE2=Sandra Humphries - You Don't Know How Lucky You Are
TTITLE3=Sandra Humphries - Every Road
TTITLE4=Sandra Humphries - From The Heart
TTITLE5=Sandra Humphries - Wait A Minute
TTITLE6=Sandra Humphries - Could You Love Someone
TTITLE7=Sandra Humphries - Love On The Side
TTITLE8=Sandra Humphries - Some, Somebody Will
TTITLE9=Sandra Humphries - I Can Tell You Where To Go
TTITLE10=Sandra Humphries - If Tommorrow Never Comes
TTITLE11=Sandra Humphries - Who Needs You
EXTD=Produced and recorded by Bill Chambers at the Boneyard.
EXTT0=
EXTT1=
EXTT2=
EXTT3=
EXTT4=
EXTT5=
EXTT6=
EXTT7=Duet with Bill Chambers
EXTT8=
EXTT9=
EXTT10=
EXTT11=
PLAYORDER=
